<svg xmlns="http://www.w3.org/2000/svg" viewBox="0 0 96 96">
  <path fill="currentColor" d="M49 8h1v1h-1zM48 9h2v1h-2zM48 10h2v1h-2zM47 11h3v1h-3zM47 12h3v1h-3zM47 13h4v1h-4zM46 14h5v1h-5zM46 15h5v1h-5zM44 16h7v1h-7zM43 17h9v1h-9zM43 18h9v1h-9zM42 19h10v1h-10zM42 20h11v1h-11zM55 20h1v1h-1zM42 21h11v1h-11zM55 21h1v1h-1zM41 22h12v1h-12zM54 22h3v1h-3zM38 23h1v1h-1zM41 23h12v1h-12zM54 23h3v1h-3zM38 24h1v1h-1zM41 24h17v1h-17zM38 25h1v1h-1zM40 25h18v1h-18zM37 26h21v1h-21zM37 27h10v1h-10zM48 27h10v1h-10zM37 28h10v1h-10zM48 28h11v1h-11zM36 29h11v1h-11zM49 29h11v1h-11zM36 30h11v1h-11zM50 30h10v1h-10zM36 31h11v1h-11zM50 31h10v1h-10zM36 32h11v1h-11zM51 32h9v1h-9zM64 32h1v1h-1zM32 33h1v1h-1zM35 33h11v1h-11zM51 33h10v1h-10zM64 33h2v1h-2zM32 34h1v1h-1zM35 34h11v1h-11zM51 34h10v1h-10zM63 34h3v1h-3zM31 35h2v1h-2zM35 35h11v1h-11zM52 35h8v1h-8zM63 35h3v1h-3zM30 36h3v1h-3zM35 36h10v1h-10zM53 36h8v1h-8zM62 36h4v1h-4zM30 37h3v1h-3zM35 37h10v1h-10zM53 37h7v1h-7zM62 37h5v1h-5zM29 38h4v1h-4zM35 38h10v1h-10zM53 38h14v1h-14zM29 39h5v1h-5zM35 39h9v1h-9zM53 39h15v1h-15zM29 40h11v1h-11zM41 40h3v1h-3zM53 40h15v1h-15zM28 41h12v1h-12zM41 41h2v1h-2zM53 41h14v1h-14zM28 42h12v1h-12zM41 42h2v1h-2zM48 42h1v1h-1zM53 42h3v1h-3zM57 42h10v1h-10zM28 43h11v1h-11zM48 43h1v1h-1zM53 43h2v1h-2zM57 43h11v1h-11zM29 44h10v1h-10zM47 44h2v1h-2zM53 44h1v1h-1zM57 44h11v1h-11zM29 45h10v1h-10zM47 45h2v1h-2zM57 45h11v1h-11zM28 46h11v1h-11zM46 46h4v1h-4zM58 46h9v1h-9zM28 47h10v1h-10zM46 47h4v1h-4zM58 47h9v1h-9zM29 48h9v1h-9zM46 48h4v1h-4zM58 48h9v1h-9zM29 49h9v1h-9zM44 49h6v1h-6zM58 49h8v1h-8zM30 50h8v1h-8zM43 50h7v1h-7zM51 50h2v1h-2zM58 50h8v1h-8zM30 51h9v1h-9zM43 51h10v1h-10zM58 51h9v1h-9zM30 52h9v1h-9zM43 52h10v1h-10zM58 52h8v1h-8zM31 53h8v1h-8zM43 53h10v1h-10zM57 53h8v1h-8zM32 54h8v1h-8zM43 54h10v1h-10zM57 54h8v1h-8zM25 55h2v1h-2zM32 55h9v1h-9zM43 55h10v1h-10zM56 55h8v1h-8zM24 56h6v1h-6zM34 56h7v1h-7zM44 56h3v1h-3zM48 56h4v1h-4zM55 56h7v1h-7zM67 56h5v1h-5zM23 57h9v1h-9zM35 57h7v1h-7zM44 57h3v1h-3zM49 57h3v1h-3zM54 57h6v1h-6zM64 57h9v1h-9zM25 58h9v1h-9zM37 58h6v1h-6zM45 58h2v1h-2zM49 58h2v1h-2zM53 58h6v1h-6zM64 58h8v1h-8zM22 59h15v1h-15zM40 59h5v1h-5zM46 59h1v1h-1zM49 59h1v1h-1zM52 59h4v1h-4zM59 59h11v1h-11zM72 59h1v1h-1zM22 60h17v1h-17zM44 60h1v1h-1zM57 60h17v1h-17zM22 61h18v1h-18zM54 61h19v1h-19zM23 62h21v1h-21zM52 62h21v1h-21zM25 63h21v1h-21zM50 63h22v1h-22zM28 64h18v1h-18zM47 64h23v1h-23zM30 65h37v1h-37zM32 66h32v1h-32zM28 67h39v1h-39zM23 68h13v1h-13zM38 68h21v1h-21zM60 68h12v1h-12zM23 69h1v1h-1zM25 69h48v1h-48zM22 70h48v1h-48zM71 70h3v1h-3zM22 71h4v1h-4zM27 71h47v1h-47zM22 72h5v1h-5zM28 72h17v1h-17zM50 72h24v1h-24zM22 73h5v1h-5zM28 73h15v1h-15zM52 73h16v1h-16zM69 73h5v1h-5zM22 74h18v1h-18zM55 74h19v1h-19zM26 75h2v1h-2zM29 75h9v1h-9zM42 75h1v1h-1zM52 75h2v1h-2zM57 75h10v1h-10zM68 75h3v1h-3zM72 75h2v1h-2zM24 76h11v1h-11zM41 76h3v1h-3zM51 76h4v1h-4zM60 76h12v1h-12zM24 77h8v1h-8zM41 77h5v1h-5zM50 77h5v1h-5zM63 77h5v1h-5zM69 77h3v1h-3zM26 78h1v1h-1zM28 78h2v1h-2zM42 78h5v1h-5zM49 78h4v1h-4zM66 78h5v1h-5zM43 79h10v1h-10zM44 80h7v1h-7zM45 81h5v1h-5zM44 82h7v1h-7zM43 83h9v1h-9zM42 84h5v1h-5zM48 84h6v1h-6zM41 85h5v1h-5zM49 85h5v1h-5zM41 86h4v1h-4zM51 86h4v1h-4zM42 87h1v1h-1zM52 87h2v1h-2z"/>
</svg>
